<svg width="20" height="21" viewBox="0 0 20 21" fill="none" xmlns="http://www.w3.org/2000/svg">
<path fill-rule="evenodd" clip-rule="evenodd" d="M9.15116 0.75C6.80671 0.75 4.90617 2.47198 4.90617 4.59615V6.13461H3.03869C2.16972 6.13461 1.441 6.72903 1.35003 7.51202L0.0095117 19.0505C-0.0960208 19.9588 0.690074 20.75 1.69817 20.75H18.3018C19.3099 20.75 20.096 19.9588 19.9905 19.0505L18.65 7.51202C18.559 6.72903 17.8302 6.13461 16.9613 6.13461H15.0941V4.59615C15.0941 2.47198 13.1936 0.75 10.8492 0.75H9.15116ZM13.3961 7.67253V9.21099C13.3961 9.63583 13.7763 9.98022 14.2451 9.98022C14.7141 9.98022 15.0941 9.63583 15.0941 9.21099V7.67253H16.9614L18.3019 19.211H1.69824L3.03876 7.67253H4.90624V9.21099C4.90624 9.63583 5.28635 9.98022 5.75524 9.98022C6.22412 9.98022 6.60423 9.63583 6.60423 9.21099V7.67253H13.3961ZM13.3964 6.13457V4.5961C13.3964 3.3216 12.2562 2.28841 10.8495 2.28841H9.15149C7.74482 2.28841 6.60449 3.3216 6.60449 4.5961V6.13457H13.3964Z" fill="white"/>
</svg>
