<svg width="12" height="12" viewBox="0 0 12 12" fill="none" xmlns="http://www.w3.org/2000/svg">
<path fill-rule="evenodd" clip-rule="evenodd" d="M1.15417 0.198025C0.89014 -0.0660084 0.462058 -0.0660084 0.198025 0.198025C-0.0660083 0.462059 -0.0660083 0.89014 0.198025 1.15418L5.10891 6.06508L0.328189 10.8458C0.0641559 11.1099 0.0641556 11.5379 0.328189 11.802C0.592222 12.066 1.02031 12.066 1.28434 11.802L6.06507 7.02127L10.7157 11.6719C10.9797 11.9359 11.4078 11.9359 11.6718 11.6719C11.9359 11.4078 11.9359 10.9797 11.6718 10.7157L7.0212 6.06508L11.802 1.28431C12.066 1.02027 12.066 0.592193 11.802 0.328159C11.5379 0.0641247 11.1099 0.0641246 10.8458 0.328159L6.06507 5.10893L1.15417 0.198025Z" fill="#1D1D1B"/>
</svg>
