<svg width="20" height="20" viewBox="0 0 20 20" fill="none" xmlns="http://www.w3.org/2000/svg">
<path fill-rule="evenodd" clip-rule="evenodd" d="M16.9658 9.15876C16.9658 13.2973 13.5478 16.6521 9.33128 16.6521C5.11486 16.6521 1.69678 13.2973 1.69678 9.15876C1.69678 5.02027 5.11486 1.66536 9.33128 1.66536C13.5478 1.66536 16.9658 5.02027 16.9658 9.15876ZM15.0941 16.3621C13.5073 17.5867 11.5061 18.3171 9.33106 18.3171C4.17765 18.3171 0 14.2167 0 9.15859C0 4.10044 4.17765 0 9.33106 0C14.4845 0 18.6621 4.10044 18.6621 9.15859C18.6621 11.4821 17.7806 13.6035 16.3278 15.2182L19.7516 18.5786C20.0828 18.9038 20.0828 19.431 19.7516 19.7561C19.4203 20.0813 18.8831 20.0813 18.5518 19.7561L15.0941 16.3621Z" fill="white"/>
</svg>
